# Alias OBJ Model File
# Exported from SketchUp, (c) 2000-2012 Trimble Navigation Limited
# File units = inches

mtllib space room.mtl

g Mesh1 Model

usemtl FrontColor
v 0 0 -0
vt 0 0
vn 0 -1 -0
v 0 0 -720
vt 0 720
v 720 0 -720
vt -720 720
v 720 0 -600
vt -720 600
v 720 0 -480
vt -720 480
v 720 0 -360
vt -720 360
v 720 0 -240
vt -720 240
v 720 0 -120
vt -720 120
v 720 0 -0
vt -720 0
f 1/1/1 2/2/1 3/3/1 4/4/1 5/5/1 6/6/1 7/7/1 8/8/1 9/9/1 

usemtl _3
vn -1 0 -0
v 0 240 -0
vt 0 240
v 0 240 -720
f 2/9/2 1/1/2 10/10/2 11/7/2 

usemtl FrontColor
vn 0 0 1
v 360 30 -0
vt 360 30
f 1/1/3 12/11/3 10/10/3

v 660 30 -0
vt 660 30
f 12/11/3 1/1/3 13/12/3

vt 720 0
f 9/13/3 13/12/3 1/1/3

v 720 240 -0
vt 720 240
f 13/12/3 9/13/3 14/14/3

usemtl Translucent_Glass_Safety
vn 1 0 -0
vt 20 0
v 720 240 -120
vt 20 40
vt 0 40
f 9/1/4 8/15/4 15/16/4 14/17/4 

vt 40 0
v 720 240 -240
vt 40 40
f 8/15/4 7/18/4 16/19/4 15/16/4 

v 720 240 -360
vt 60 40
vt 60 0
f 17/20/4 16/19/4 7/18/4 6/21/4 

usemtl FrontColor
v 720 240 -720
vt 720 720
vn 0 1 -0
v 540 240 -720
vt 540 720
v 540 240 -360
vt 540 360
v 540 240 -0
vt 540 0
vt 720 120
vt 720 360
v 720 240 -480
vt 720 480
v 720 240 -600
vt 720 600
f 18/22/5 19/23/5 20/24/5 21/25/5 14/13/5 15/26/5 16/14/5 17/27/5 22/28/5 23/29/5 

vn 0 0 -1
v 450 240 -720
vt -450 240
vt -540 240
f 18/7/6 24/30/6 19/31/6

v 360 240 -720
vt -360 240
f 18/7/6 25/32/6 24/30/6

v 270 240 -720
vt -270 240
f 18/7/6 26/33/6 25/32/6

v 180 240 -720
vt -180 240
f 18/7/6 27/34/6 26/33/6

f 18/7/6 11/10/6 27/34/6

v 660 210 -720
vt -660 210
f 18/7/6 28/35/6 11/10/6

v 660 30 -720
vt -660 30
f 18/7/6 29/36/6 28/35/6

f 3/9/6 29/36/6 18/7/6

v 360 30 -720
vt -360 30
f 29/36/6 3/9/6 30/37/6

f 2/1/6 30/37/6 3/9/6

f 30/37/6 2/1/6 11/10/6

v 360 210 -720
vt -360 210
f 30/37/6 11/10/6 31/38/6

v 420 210 -720
vt -420 210
f 31/38/6 11/10/6 32/39/6

v 480 210 -720
vt -480 210
f 32/39/6 11/10/6 33/40/6

v 540 210 -720
vt -540 210
f 33/40/6 11/10/6 34/41/6

v 600 210 -720
vt -600 210
f 34/41/6 11/10/6 35/42/6

f 35/42/6 11/10/6 28/35/6

v 600 30 -720
vt -600 30
f 36/43/6 34/41/6 35/42/6

v 540 30 -720
vt -540 30
f 34/41/6 36/43/6 37/44/6

f 29/36/6 37/44/6 36/43/6

v 480 30 -720
vt -480 30
f 29/36/6 38/45/6 37/44/6

v 420 30 -720
vt -420 30
f 29/36/6 39/46/6 38/45/6

f 29/36/6 30/37/6 39/46/6

f 32/39/6 38/45/6 39/46/6

f 38/45/6 32/39/6 33/40/6

usemtl Translucent_Glass_Safety
vt 120 40
vt 100 40
vt 100 0
vt 120 0
f 18/47/4 23/48/4 4/49/4 3/50/4 

vt 80 40
vt 80 0
f 23/48/4 22/51/4 5/52/4 4/49/4 

f 6/21/4 5/52/4 22/51/4 17/20/4 

usemtl FrontColor
v 180 240 -0
vt 180 0
v 180 240 -360
vt 180 360
vt 180 720
f 10/1/5 40/53/5 41/54/5 27/55/5 11/2/5 

v 270 240 -0
vt 270 240
vt 180 240
f 10/10/3 42/56/3 40/57/3

v 360 240 -0
vt 360 240
f 10/10/3 43/58/3 42/56/3

v 450 240 -0
vt 450 240
f 10/10/3 44/59/3 43/58/3

vt 540 240
f 10/10/3 21/60/3 44/59/3

f 10/10/3 14/14/3 21/60/3

v 360 210 -0
vt 360 210
f 10/10/3 45/61/3 14/14/3

f 10/10/3 12/11/3 45/61/3

v 420 210 -0
vt 420 210
f 46/62/3 14/14/3 45/61/3

v 480 210 -0
vt 480 210
f 47/63/3 14/14/3 46/62/3

v 540 210 -0
vt 540 210
f 48/64/3 14/14/3 47/63/3

v 600 210 -0
vt 600 210
f 49/65/3 14/14/3 48/64/3

v 660 210 -0
vt 660 210
f 50/66/3 14/14/3 49/65/3

f 13/12/3 14/14/3 50/66/3

v 540 30 -0
vt 540 30
f 51/67/3 49/65/3 48/64/3

v 600 30 -0
vt 600 30
f 49/65/3 51/67/3 52/68/3

f 12/11/3 52/68/3 51/67/3

f 12/11/3 13/12/3 52/68/3

v 480 30 -0
vt 480 30
f 12/11/3 51/67/3 53/69/3

v 420 30 -0
vt 420 30
f 12/11/3 53/69/3 54/70/3

f 47/63/3 54/70/3 53/69/3

f 54/70/3 47/63/3 46/62/3

v 450 240 -360
vt 450 360
v 450 240 -315
vt 450 315
v 450 240 -292.5
vt 450 292.5
v 450 240 -270
vt 450 270
v 450 240 -180
vt 450 180
vt 450 0
f 21/25/5 20/24/5 55/71/5 56/72/5 57/73/5 58/74/5 59/75/5 44/76/5 

v 450 240 -405
vt 450 405
vt 450 720
v 450 240 -540
vt 450 540
v 450 240 -450
vt 450 450
f 60/77/5 55/71/5 20/24/5 19/23/5 24/78/5 61/79/5 62/80/5 

v 427.5 240 -405
vt 427.5 405
v 416.25 240 -405
vt 416.25 405
v 410.625 240 -405
vt 410.625 405
v 407.812 240 -405
vt 407.812 405
v 405 240 -405
vt 405 405
v 405 240 -360
vt 405 360
f 55/71/5 60/77/5 63/81/5 64/82/5 65/83/5 66/84/5 67/85/5 68/86/5 

v 427.5 240 -450
vt 427.5 450
v 427.5 240 -427.5
vt 427.5 427.5
v 427.5 240 -416.25
vt 427.5 416.25
f 62/80/5 69/87/5 70/88/5 71/89/5 63/81/5 60/77/5 

v 405 240 -540
vt 405 540
v 405 240 -450
vt 405 450
f 72/90/5 73/91/5 69/87/5 62/80/5 61/79/5 

v 360 240 -540
vt 360 540
v 360 240 -450
vt 360 450
f 74/92/5 75/93/5 73/91/5 72/90/5 

v 315 240 -540
vt 315 540
v 315 240 -450
vt 315 450
f 74/92/5 76/94/5 77/95/5 75/93/5 

vt 270 720
v 270 240 -540
vt 270 540
vt 360 720
f 26/96/5 78/97/5 76/94/5 74/92/5 25/98/5 

v 270 240 -360
vt 270 360
v 270 240 -405
vt 270 405
v 270 240 -427.5
vt 270 427.5
v 270 240 -450
vt 270 450
f 27/55/5 41/54/5 79/99/5 80/100/5 81/101/5 82/102/5 78/97/5 26/96/5 

v 270 240 -315
vt 270 315
vt 270 0
v 270 240 -180
vt 270 180
v 270 240 -270
vt 270 270
f 83/103/5 79/99/5 41/54/5 40/53/5 42/104/5 84/105/5 85/106/5 

v 292.5 240 -315
vt 292.5 315
v 303.75 240 -315
vt 303.75 315
v 309.375 240 -315
vt 309.375 315
v 312.188 240 -315
vt 312.188 315
v 315 240 -315
vt 315 315
v 315 240 -360
vt 315 360
f 79/99/5 83/103/5 86/107/5 87/108/5 88/109/5 89/110/5 90/111/5 91/112/5 

v 292.5 240 -270
vt 292.5 270
v 292.5 240 -292.5
vt 292.5 292.5
v 292.5 240 -303.75
vt 292.5 303.75
f 85/106/5 92/113/5 93/114/5 94/115/5 86/107/5 83/103/5 

v 315 240 -180
vt 315 180
v 315 240 -270
vt 315 270
f 84/105/5 95/116/5 96/117/5 92/113/5 85/106/5 

vt 360 0
v 360 240 -180
vt 360 180
f 43/118/5 97/119/5 95/116/5 84/105/5 42/104/5 

v 405 240 -180
vt 405 180
f 44/76/5 59/75/5 98/120/5 97/119/5 43/118/5 

v 405 240 -270
vt 405 270
f 59/75/5 58/74/5 99/121/5 98/120/5 

v 427.5 240 -292.5
vt 427.5 292.5
v 416.25 240 -292.5
vt 416.25 292.5
v 405 240 -292.5
vt 405 292.5
f 58/74/5 57/73/5 100/122/5 101/123/5 102/124/5 99/121/5 

v 427.5 240 -315
vt 427.5 315
f 56/72/5 103/125/5 100/122/5 57/73/5 

v 405 240 -315
vt 405 315
v 407.812 240 -315
vt 407.812 315
v 410.625 240 -315
vt 410.625 315
v 416.25 240 -315
vt 416.25 315
f 68/86/5 104/126/5 105/127/5 106/128/5 107/129/5 103/125/5 56/72/5 55/71/5 

v 405 240 -312.188
vt 405 312.188
v 407.812 240 -312.188
vt 407.812 312.188
f 108/130/5 109/131/5 105/127/5 104/126/5 

v 410.625 240 -309.375
vt 410.625 309.375
v 410.625 240 -312.188
vt 410.625 312.188
v 405 240 -309.375
vt 405 309.375
f 110/132/5 111/133/5 109/131/5 108/130/5 112/134/5 

v 410.625 240 -303.75
vt 410.625 303.75
v 416.25 240 -303.75
vt 416.25 303.75
f 107/129/5 106/128/5 111/133/5 110/132/5 113/135/5 114/136/5 

f 106/128/5 105/127/5 109/131/5 111/133/5 

v 405 240 -303.75
vt 405 303.75
f 113/135/5 110/132/5 112/134/5 115/137/5 

v 360 240 -315
vt 360 315
v 360 240 -270
vt 360 270
f 108/130/5 104/126/5 116/138/5 117/139/5 99/121/5 102/124/5 115/137/5 112/134/5 

v 315 240 -312.188
vt 315 312.188
v 315 240 -309.375
vt 315 309.375
v 315 240 -303.75
vt 315 303.75
v 315 240 -292.5
vt 315 292.5
f 117/139/5 116/138/5 90/111/5 118/140/5 119/141/5 120/142/5 121/143/5 96/117/5 

v 312.188 240 -312.188
vt 312.188 312.188
f 89/110/5 122/144/5 118/140/5 90/111/5 

v 309.375 240 -309.375
vt 309.375 309.375
v 312.188 240 -309.375
vt 312.188 309.375
f 123/145/5 124/146/5 122/144/5 89/110/5 88/109/5 

v 303.75 240 -309.375
vt 303.75 309.375
v 303.75 240 -303.75
vt 303.75 303.75
f 120/142/5 119/141/5 124/146/5 123/145/5 125/147/5 126/148/5 

f 119/141/5 118/140/5 122/144/5 124/146/5 

f 125/147/5 123/145/5 88/109/5 87/108/5 

f 94/115/5 126/148/5 125/147/5 87/108/5 86/107/5 

f 121/143/5 120/142/5 126/148/5 94/115/5 93/114/5 

f 96/117/5 121/143/5 93/114/5 92/113/5 

f 117/139/5 96/117/5 95/116/5 97/119/5 

f 98/120/5 99/121/5 117/139/5 97/119/5 

f 101/123/5 114/136/5 113/135/5 115/137/5 102/124/5 

f 103/125/5 107/129/5 114/136/5 101/123/5 100/122/5 

v 315 240 -405
vt 315 405
v 312.188 240 -405
vt 312.188 405
v 309.375 240 -405
vt 309.375 405
v 303.75 240 -405
vt 303.75 405
v 292.5 240 -405
vt 292.5 405
f 91/112/5 127/149/5 128/150/5 129/151/5 130/152/5 131/153/5 80/100/5 79/99/5 

v 315 240 -407.812
vt 315 407.812
v 312.188 240 -407.812
vt 312.188 407.812
f 132/154/5 133/155/5 128/150/5 127/149/5 

v 309.375 240 -410.625
vt 309.375 410.625
v 309.375 240 -407.812
vt 309.375 407.812
v 315 240 -410.625
vt 315 410.625
f 134/156/5 135/157/5 133/155/5 132/154/5 136/158/5 

v 309.375 240 -416.25
vt 309.375 416.25
v 303.75 240 -416.25
vt 303.75 416.25
f 130/152/5 129/151/5 135/157/5 134/156/5 137/159/5 138/160/5 

f 129/151/5 128/150/5 133/155/5 135/157/5 

v 315 240 -416.25
vt 315 416.25
f 137/159/5 134/156/5 136/158/5 139/161/5 

v 360 240 -405
vt 360 405
v 315 240 -427.5
vt 315 427.5
f 132/154/5 127/149/5 140/162/5 75/93/5 77/95/5 141/163/5 139/161/5 136/158/5 

v 405 240 -407.812
vt 405 407.812
v 405 240 -410.625
vt 405 410.625
v 405 240 -416.25
vt 405 416.25
v 405 240 -427.5
vt 405 427.5
f 75/93/5 140/162/5 67/85/5 142/164/5 143/165/5 144/166/5 145/167/5 73/91/5 

v 407.812 240 -407.812
vt 407.812 407.812
f 66/84/5 146/168/5 142/164/5 67/85/5 

v 410.625 240 -410.625
vt 410.625 410.625
v 407.812 240 -410.625
vt 407.812 410.625
f 147/169/5 148/170/5 146/168/5 66/84/5 65/83/5 

v 416.25 240 -410.625
vt 416.25 410.625
v 416.25 240 -416.25
vt 416.25 416.25
f 144/166/5 143/165/5 148/170/5 147/169/5 149/171/5 150/172/5 

f 143/165/5 142/164/5 146/168/5 148/170/5 

f 149/171/5 147/169/5 65/83/5 64/82/5 

f 71/89/5 150/172/5 149/171/5 64/82/5 63/81/5 

f 145/167/5 144/166/5 150/172/5 71/89/5 70/88/5 

f 73/91/5 145/167/5 70/88/5 69/87/5 

v 292.5 240 -427.5
vt 292.5 427.5
v 303.75 240 -427.5
vt 303.75 427.5
f 82/102/5 81/101/5 151/173/5 152/174/5 141/163/5 77/95/5 

f 80/100/5 131/153/5 151/173/5 81/101/5 

f 131/153/5 130/152/5 138/160/5 152/174/5 151/173/5 

f 152/174/5 138/160/5 137/159/5 139/161/5 141/163/5 

f 82/102/5 77/95/5 76/94/5 78/97/5 

f 25/98/5 74/92/5 72/90/5 61/79/5 24/78/5 

